HIERARCHY
ROOT Hips
{
 OFFSET 0.000000 0.000000 0.000000
 CHANNELS 6 Xposition Yposition Zposition Yrotation Xrotation Zrotation
 JOINT Chest
 {
  OFFSET 0.000000 9.588913 -0.003946
  CHANNELS 3 Yrotation Xrotation Zrotation
  JOINT Chest2
  {
   OFFSET 0.000000 9.541882 0.008053
   CHANNELS 3 Yrotation Xrotation Zrotation
   JOINT Chest3
   {
    OFFSET 0.000000 9.501360 0.000000
    CHANNELS 3 Yrotation Xrotation Zrotation
    JOINT Chest4
    {
     OFFSET 0.000000 9.491660 0.000000
     CHANNELS 3 Yrotation Xrotation Zrotation
     JOINT Neck
     {
      OFFSET 0.000000 14.331917 0.000000
      CHANNELS 3 Yrotation Xrotation Zrotation
      JOINT Head
      {
       OFFSET 0.000000 8.884799 0.017034
       CHANNELS 3 Yrotation Xrotation Zrotation
       End Site
       {
        OFFSET 0.000000 16.896195 0.008993
       }
      }
     }
     JOINT RightCollar
     {
      OFFSET -2.923010 9.499495 0.000000
      CHANNELS 3 Yrotation Xrotation Zrotation
      JOINT RightShoulder
      {
       OFFSET -13.795216 0.000000 0.000000
       CHANNELS 3 Yrotation Xrotation Zrotation
       JOINT RightElbow
       {
        OFFSET -30.272209 0.000000 0.000000
        CHANNELS 3 Yrotation Xrotation Zrotation
        JOINT RightWrist
        {
         OFFSET -24.478199 0.000000 0.000000
         CHANNELS 3 Yrotation Xrotation Zrotation
         End Site
         {
          OFFSET -18.090752 0.000000 0.000000
         }
        }
       }
      }
     }
     JOINT LeftCollar
     {
      OFFSET 2.923010 9.499495 0.000000
      CHANNELS 3 Yrotation Xrotation Zrotation
      JOINT LeftShoulder
      {
       OFFSET 13.795216 0.000000 0.000000
       CHANNELS 3 Yrotation Xrotation Zrotation
       JOINT LeftElbow
       {
        OFFSET 30.272209 0.000000 0.000000
        CHANNELS 3 Yrotation Xrotation Zrotation
        JOINT LeftWrist
        {
         OFFSET 24.478199 0.000000 0.000000
         CHANNELS 3 Yrotation Xrotation Zrotation
         End Site
         {
          OFFSET 18.090752 0.000000 0.000000
         }
        }
       }
      }
     }
    }
   }
  }
 }
 JOINT RightHip
 {
  OFFSET -7.826875 0.019532 0.001973
  CHANNELS 3 Yrotation Xrotation Zrotation
  JOINT RightKnee
  {
   OFFSET 0.000000 -40.546152 -0.001885
   CHANNELS 3 Yrotation Xrotation Zrotation
   JOINT RightAnkle
   {
    OFFSET 0.000000 -39.417092 -0.003189
    CHANNELS 3 Yrotation Xrotation Zrotation
    JOINT RightToe
    {
     OFFSET 0.000000 -7.579396 17.243563
     CHANNELS 3 Yrotation Xrotation Zrotation
     End Site
     {
      OFFSET 0.000000 -1.500329 6.694466
     }
    }
   }
  }
 }
 JOINT LeftHip
 {
  OFFSET 7.826875 0.019532 0.001973
  CHANNELS 3 Yrotation Xrotation Zrotation
  JOINT LeftKnee
  {
   OFFSET 0.000000 -40.546152 -0.001885
   CHANNELS 3 Yrotation Xrotation Zrotation
   JOINT LeftAnkle
   {
    OFFSET 0.000000 -39.417092 -0.003189
    CHANNELS 3 Yrotation Xrotation Zrotation
    JOINT LeftToe
    {
     OFFSET 0.000000 -7.579396 17.243563
     CHANNELS 3 Yrotation Xrotation Zrotation
     End Site
     {
      OFFSET 0.000000 -1.500329 6.694466
     }
    }
   }
  }
 }
}
MOTION
Frames: 14
Frame Time: 0.008333
-2.207335 89.199270 -12.923890 173.866261 -4.153608 -0.045988 1.932473 2.149113 0.046668 1.097991 1.228049 0.024199 1.372649 1.534971 0.033929 1.097991 1.228049 0.024199 12.706371 22.912156 -0.462455 14.474136 -0.148622 -3.467785 18.887537 -0.342123 -3.683949 -16.906873 -47.490080 87.181312 -2.260778 -55.494816 12.780245 5.673439 -19.787005 1.496084 -19.972810 -2.858641 -2.910814 23.771080 -46.469349 -102.098432 18.057131 -61.359589 -34.509264 -4.244864 -16.761465 1.876688 -8.955107 9.661046 0.359883 4.587937 -0.042590 0.672055 9.703079 -3.974493 -2.141438 -0.007592 -0.010249 -0.000719 12.062013 7.922706 1.220512 -5.286591 -0.084049 -0.345904 -2.766659 -3.437095 0.001716 0.003151 0.009492 -0.004048
-2.207034 89.199114 -12.927733 173.871153 -4.152151 -0.045563 1.932026 2.144250 0.047545 1.098111 1.225254 0.024604 1.372800 1.531477 0.034426 1.098111 1.225254 0.024604 12.712744 22.906506 -0.439778 14.475831 -0.155974 -3.443685 18.891815 -0.328232 -3.676219 -16.914552 -47.492252 87.187216 -2.246233 -55.499472 12.749834 5.678714 -19.787571 1.491516 -19.973399 -2.848708 -2.912386 23.769204 -46.468959 -102.102501 18.062158 -61.367957 -34.517057 -4.248503 -16.760714 1.885991 -8.960451 9.662815 0.359098 4.584833 -0.043509 0.671523 9.705094 -3.976447 -2.141358 -0.007497 -0.011060 -0.001178 12.061063 7.922834 1.220093 -5.285612 -0.080532 -0.344757 -2.769649 -3.441958 0.001311 0.003157 0.010870 -0.003430
-2.207343 89.198858 -12.931304 173.875506 -4.149667 -0.043804 1.930597 2.138543 0.048744 1.097619 1.221933 0.024575 1.372183 1.527326 0.034379 1.097619 1.221933 0.024575 12.721463 22.903003 -0.416578 14.480295 -0.160394 -3.419529 18.893963 -0.312319 -3.670261 -16.920819 -47.495346 87.196994 -2.232579 -55.501441 12.721486 5.679802 -19.789765 1.488975 -19.971397 -2.836687 -2.914358 23.762813 -46.470842 -102.101028 18.074452 -61.371298 -34.532821 -4.252990 -16.760352 1.892170 -8.964882 9.663339 0.355075 4.583043 -0.046164 0.669385 9.718629 -3.977424 -2.138061 -0.006419 -0.011039 -0.001675 12.061944 7.924353 1.218660 -5.285517 -0.081618 -0.345265 -2.771355 -3.444595 0.001813 0.002823 0.011920 -0.002618
-2.207688 89.198473 -12.934567 173.884617 -4.146177 -0.043581 1.926119 2.131660 0.052635 1.095914 1.218201 0.024303 1.370051 1.522661 0.034022 1.095914 1.218201 0.024303 12.731579 22.901205 -0.393083 14.486421 -0.162546 -3.395351 18.899071 -0.294495 -3.664807 -16.929312 -47.499763 87.205683 -2.223350 -55.504869 12.700142 5.676875 -19.791619 1.483243 -19.965127 -2.822136 -2.916122 23.754579 -46.473934 -102.099898 18.088672 -61.367834 -34.550239 -4.255989 -16.760280 1.896876 -8.971363 9.660064 0.350320 4.578823 -0.048439 0.670617 9.731986 -3.979670 -2.135267 -0.004325 -0.007275 -0.001666 12.060998 7.927233 1.219731 -5.285902 -0.084394 -0.346482 -2.773903 -3.444058 0.001961 0.002020 0.008221 -0.001945
-2.208785 89.197940 -12.937695 173.898946 -4.141981 -0.039973 1.920372 2.124658 0.053429 1.092626 1.214365 0.024172 1.365940 1.517866 0.033836 1.092626 1.214365 0.024172 12.741523 22.900148 -0.370318 14.492546 -0.163769 -3.371951 18.907172 -0.275296 -3.659498 -16.939583 -47.507581 87.210827 -2.219562 -55.513667 12.686315 5.670483 -19.791744 1.475092 -19.956164 -2.807365 -2.916901 23.746469 -46.476323 -102.101412 18.093935 -61.358420 -34.557160 -4.254803 -16.759563 1.896566 -8.980913 9.658201 0.341664 4.572154 -0.049663 0.675264 9.744881 -3.982873 -2.135704 -0.002775 -0.006099 -0.001733 12.057737 7.926097 1.216310 -5.288066 -0.085325 -0.348406 -2.779744 -3.446512 0.003040 0.001864 0.009440 -0.001035
-2.210120 89.197257 -12.940841 173.913774 -4.137917 -0.035501 1.913416 2.117776 0.053902 1.088907 1.210572 0.023845 1.361289 1.513128 0.033403 1.088907 1.210572 0.023845 12.750875 22.899261 -0.348732 14.498264 -0.164796 -3.349742 18.915583 -0.256741 -3.653291 -16.943881 -47.517453 87.211873 -2.218934 -55.531279 12.678151 5.664490 -19.790395 1.468737 -19.947191 -2.792789 -2.917463 23.739070 -46.477557 -102.102012 18.086321 -61.348901 -34.550534 -4.242672 -16.755869 1.890629 -8.989269 9.656034 0.333492 4.567921 -0.049120 0.678498 9.748643 -3.988599 -2.136141 -0.001381 -0.004435 -0.001283 12.056113 7.925267 1.212987 -5.290520 -0.086993 -0.351604 -2.787278 -3.448642 0.004194 0.002100 0.010562 0.000117
-2.211737 89.196428 -12.944120 173.925637 -4.134164 -0.029951 1.906670 2.110878 0.053644 1.085470 1.206673 0.023349 1.356990 1.508255 0.032760 1.085470 1.206673 0.023349 12.759317 22.898571 -0.328477 14.503228 -0.165631 -3.328822 18.923540 -0.240460 -3.646462 -16.943370 -47.526647 87.213003 -2.217584 -55.555178 12.673137 5.663723 -19.788909 1.460986 -19.939919 -2.777543 -2.918146 23.734410 -46.478470 -102.101081 18.074464 -61.341045 -34.540484 -4.222779 -16.749726 1.882181 -8.992335 9.653945 0.328301 4.565177 -0.046766 0.679000 9.732331 -3.997175 -2.136448 -0.001231 -0.002399 -0.000770 12.057187 7.925610 1.209204 -5.291590 -0.089457 -0.355733 -2.794796 -3.451216 0.005094 0.002756 0.011708 0.001744
-2.213499 89.195459 -12.947528 173.935798 -4.130371 -0.024963 1.900924 2.104328 0.054031 1.082458 1.202812 0.023462 1.353224 1.503429 0.032881 1.082458 1.202812 0.023462 12.766196 22.898064 -0.310825 14.506974 -0.166309 -3.310475 18.931306 -0.227710 -3.641206 -16.942468 -47.535316 87.215465 -2.217691 -55.580164 12.670924 5.671706 -19.789147 1.448168 -19.934457 -2.762585 -2.919026 23.734248 -46.478743 -102.102693 18.068645 -61.331906 -34.539296 -4.207109 -16.746157 1.874591 -8.993226 9.651479 0.324688 4.561878 -0.043361 0.678101 9.711757 -4.006772 -2.136036 -0.001660 -0.000523 -0.000273 12.059023 7.925323 1.206192 -5.292078 -0.089931 -0.360519 -2.802556 -3.455951 0.006226 0.003203 0.012996 0.003290
-2.215314 89.194377 -12.951162 173.945012 -4.126873 -0.021914 1.896132 2.098275 0.055640 1.079871 1.199094 0.024435 1.349993 1.498779 0.034078 1.079871 1.199094 0.024435 12.772428 22.897580 -0.295448 14.510531 -0.166914 -3.294551 18.938932 -0.217792 -3.636736 -16.942813 -47.543827 87.217660 -2.220058 -55.602222 12.673070 5.686372 -19.792070 1.434331 -19.928425 -2.747544 -2.920298 23.735222 -46.480347 -102.106403 18.069312 -61.323772 -34.547730 -4.197689 -16.747518 1.869679 -8.994365 9.649549 0.320896 4.559014 -0.040612 0.677628 9.699922 -4.015334 -2.135925 -0.001644 0.000813 0.001112 12.061800 7.924237 1.205022 -5.292569 -0.088078 -0.365590 -2.810989 -3.462429 0.008507 0.003019 0.014133 0.004010
-2.217486 89.193224 -12.955261 173.957061 -4.124782 -0.019769 1.891103 2.092572 0.057022 1.077145 1.195694 0.025797 1.346589 1.494525 0.035762 1.077145 1.195694 0.025797 12.779728 22.896966 -0.280883 14.515606 -0.167473 -3.279800 18.944596 -0.209642 -3.631268 -16.942927 -47.550659 87.219055 -2.217344 -55.623419 12.674189 5.698426 -19.796875 1.426593 -19.924207 -2.732175 -2.920622 23.737779 -46.484443 -102.111660 18.073744 -61.319956 -34.560331 -4.190583 -16.752467 1.867335 -8.998527 9.650646 0.318021 4.556704 -0.039482 0.677268 9.682841 -4.023887 -2.137803 -0.002181 0.001945 0.003535 12.059713 7.924353 1.203861 -5.293436 -0.086076 -0.370520 -2.817642 -3.468679 0.012431 0.002269 0.014936 0.003671
-2.220175 89.192040 -12.959850 173.971236 -4.124066 -0.017786 1.886421 2.087443 0.058670 1.074635 1.192930 0.027660 1.343457 1.491065 0.038073 1.074635 1.192930 0.027660 12.787371 22.896641 -0.267675 14.521465 -0.167545 -3.266665 18.946257 -0.203703 -3.627622 -16.942609 -47.554939 87.221240 -2.208587 -55.645328 12.671641 5.701684 -19.802601 1.426532 -19.924974 -2.721236 -2.920799 23.743987 -46.487197 -102.119435 18.083486 -61.321083 -34.577217 -4.190054 -16.758204 1.869940 -9.004598 9.653871 0.316797 4.555294 -0.038234 0.675707 9.656671 -4.033898 -2.140274 -0.003529 0.003166 0.005709 12.051757 7.925491 1.202014 -5.293767 -0.083344 -0.375510 -2.822359 -3.475722 0.017938 0.001312 0.015983 0.002516
-2.223112 89.190871 -12.964935 173.982243 -4.124795 -0.016991 1.884202 2.083176 0.061526 1.073586 1.190796 0.029967 1.342152 1.488391 0.040948 1.073586 1.190796 0.029967 12.793500 22.897226 -0.255191 14.525681 -0.166685 -3.253978 18.941315 -0.199649 -3.626357 -16.943451 -47.557949 87.226745 -2.200469 -55.664463 12.671534 5.697137 -19.808178 1.431013 -19.927558 -2.715519 -2.920441 23.748748 -46.487528 -102.129578 18.099283 -61.328115 -34.599036 -4.201437 -16.761854 1.878097 -9.006715 9.658131 0.315444 4.551860 -0.036401 0.673705 9.643009 -4.044451 -2.141290 -0.004048 0.004522 0.007024 12.046636 7.926800 1.200873 -5.296045 -0.077538 -0.379332 -2.824546 -3.485044 0.023743 0.000556 0.016954 0.001095
-2.226268 89.189765 -12.970544 173.990459 -4.126884 -0.016986 1.883913 2.078860 0.064274 1.073721 1.188539 0.031921 1.342327 1.485564 0.043385 1.073721 1.188539 0.031921 12.798974 22.899814 -0.241279 14.528755 -0.163561 -3.239493 18.931404 -0.193471 -3.622448 -16.945293 -47.562789 87.235703 -2.193995 -55.679124 12.674774 5.689132 -19.813461 1.434765 -19.928635 -2.708593 -2.918444 23.751328 -46.487443 -102.144113 18.112904 -61.338727 -34.616231 -4.218657 -16.763083 1.886486 -9.006023 9.664252 0.312237 4.546285 -0.035972 0.672386 9.646534 -4.053938 -2.141331 -0.003419 0.005581 0.008003 12.046531 7.929104 1.199969 -5.302247 -0.070405 -0.380749 -2.824551 -3.494446 0.027578 0.000046 0.016896 0.000638
-2.229949 89.188738 -12.976316 173.999369 -4.127582 -0.015625 1.882813 2.072853 0.066021 1.073410 1.185094 0.032913 1.341941 1.481255 0.044613 1.073410 1.185094 0.032913 12.804808 22.906297 -0.225691 14.531900 -0.155737 -3.223150 18.921763 -0.182097 -3.613641 -16.947111 -47.570196 87.245782 -2.188918 -55.691032 12.680515 5.682840 -19.816484 1.435298 -19.927928 -2.697754 -2.917364 23.759120 -46.486824 -102.162592 18.115731 -61.346374 -34.620444 -4.231207 -16.765258 1.892393 -9.008185 9.670041 0.305909 4.543905 -0.038418 0.670214 9.659440 -4.061206 -2.138903 -0.002280 0.005925 0.008281 12.047380 7.930887 1.197629 -5.311651 -0.064479 -0.381977 -2.824577 -3.502193 0.030166 -0.000238 0.016100 0.001195
